<svg id="Layer_1" data-name="Layer 1" xmlns="http://www.w3.org/2000/svg" viewBox="0 0 57 57"><defs><style>.cls-1{fill:#fff;stroke:#274247;stroke-miterlimit:10;}.cls-2{fill:#274247;}</style></defs><title>Artboard 2</title><path class="cls-1" d="M53.4,29.42a3.91,3.91,0,0,0-2.54-4.31L28.5,16.5,6.85,25.11a3.92,3.92,0,0,0-2.54,4.31A3.86,3.86,0,0,0,8.1,32.54a3.8,3.8,0,0,0,1.39-.26l9-3.45V38.5h20V28.94l9.73,3.34a3.71,3.71,0,0,0,1.38.26A3.86,3.86,0,0,0,53.4,29.42Z"/><circle class="cls-1" cx="28" cy="12" r="11.5"/><rect class="cls-2" x="19" y="34" width="19" height="13"/><path class="cls-1" d="M22.2,56.39a3.81,3.81,0,0,1-3.26-2.58l-3.65-10.9a3.82,3.82,0,0,1,7.24-2.43l3.65,10.9a3.82,3.82,0,0,1-2.41,4.83A3.7,3.7,0,0,1,22.2,56.39Z"/><path class="cls-1" d="M34.8,56.39a3.81,3.81,0,0,0,3.26-2.58l3.65-10.9a3.82,3.82,0,0,0-7.24-2.43l-3.65,10.9a3.82,3.82,0,0,0,2.41,4.83A3.7,3.7,0,0,0,34.8,56.39Z"/></svg>