<svg id="Layer_1" data-name="Layer 1" xmlns="http://www.w3.org/2000/svg" viewBox="0 0 57 57"><defs><style>.cls-1{fill:#fff;}.cls-1,.cls-2,.cls-4,.cls-7{stroke:#274247;}.cls-1,.cls-2,.cls-4,.cls-5,.cls-6,.cls-7{stroke-miterlimit:10;}.cls-2,.cls-4,.cls-5,.cls-6,.cls-7{fill:none;}.cls-2,.cls-5{stroke-linecap:round;}.cls-3{fill:#274247;}.cls-5,.cls-6{stroke:#fff;}.cls-7{stroke-linecap:square;}</style></defs><title>Artboard 24</title><path class="cls-1" d="M25.72,45.5c.87,0,5.78-12.35,5.78-18.23V22c0-3.78-8-4.49-8-4.49L16,24.68,8.5,17.5S.5,18.21.5,22V39.44L6.28,45.5Z"/><circle class="cls-1" cx="16" cy="8" r="7.5"/><line class="cls-2" x1="6.5" y1="45.5" x2="6.5" y2="28.5"/><circle class="cls-1" cx="41" cy="19" r="7.5"/><path class="cls-3" d="M48,28l-7,7.22L34,28c-.34.05-9,.93-9,5.07V50.35L31,57H51l6-6.65V33.07C57,28.93,48.34,28.05,48,28Z"/><line class="cls-4" x1="6" y1="40.5" x2="25" y2="40.5"/><line class="cls-5" x1="31.5" y1="56.5" x2="31.5" y2="40.5"/><line class="cls-5" x1="50.5" y1="56.5" x2="50.5" y2="40.5"/><line class="cls-6" x1="32" y1="52.5" x2="50" y2="52.5"/><line class="cls-7" x1="31.5" y1="56.5" x2="50.5" y2="56.5"/></svg>